:SAMPLES-PER-SECOND 30
:FULLY-SPECIFIED
:DEGREES
2814
root  10.1219 40.9246 11.3157 127.386 87.5456 132.148
RightUpLeg  2.22058 -9.68012 -8.77624
RightLeg  5.33415 -8.32939 2.51207
RightFoot  -0.50741 -0.121764 1.33556
RightToes  0.000481921 0.542163 -0.142578
Spine  1.13352 0.881263 1.86793
Spine1  22.418 1.3649 -0.831702
HEad  -4.35905 -0.355057 1.05683
LeftShoulder1  11.8611 -17.0954 -50.2675
LeftArm  13.2767 1.90249 -23.4475
LeftForeArm  82.8486 -79.8874 -69.3079
LeftHand  -0.25398 0.0180481 5.50724
RightShoulder  7.68742 12.7319 41.1361
RightArm  14.1765 -3.08517 27.4957
RightForeArm  66.5579 79.1407 78.3807
RightHand  -2.20272 7.02123 -20.7982
LeftUpLeg  4.41795 4.97821 2.12463
LeftLeg  -1.82469 22.3762 -5.073
LeftFoot  2.63912 -0.0429244 0.20736
LeftToes  1.06245e-005 4.65868e-005 -8.65517e-006
2815
root  10.1202 40.9237 11.3216 127.577 87.5531 132.372
RightUpLeg  2.23461 -9.66453 -8.74966
RightLeg  5.36693 -8.34397 2.49681
RightFoot  -0.508553 -0.11957 1.2996
RightToes  0.000481921 0.542163 -0.142578
Spine  1.28251 0.928397 1.93821
Spine1  22.2483 1.44623 -0.897651
HEad  -4.69413 -0.305953 0.898837
LeftShoulder1  11.8741 -17.1153 -50.2743
LeftArm  13.0901 1.97576 -23.3752
LeftForeArm  83.9955 -79.9579 -70.2822
LeftHand  -0.25398 0.0180481 5.50724
RightShoulder  7.65904 12.7094 41.0336
RightArm  14.2461 -2.92983 27.5788
RightForeArm  67.5342 79.1849 78.4122
RightHand  -2.1743 6.99802 -20.5775
LeftUpLeg  4.41214 5.02768 2.17413
LeftLeg  -1.73505 22.3209 -5.07624
LeftFoot  2.60946 -0.0436987 0.22388
LeftToes  1.06245e-005 4.65868e-005 -8.65517e-006
2816
root  10.1084 40.9183 11.3326 129.235 87.461 134.09
RightUpLeg  2.21658 -9.67755 -8.76165
RightLeg  5.5458 -8.43291 2.45869
RightFoot  -0.583038 -0.116187 1.24594
RightToes  0.000481921 0.542163 -0.142578
Spine  1.4784 0.931478 1.83879
Spine1  22.1277 1.43015 -0.833334
HEad  -5.00802 -0.0531358 0.747929
LeftShoulder1  11.8899 -17.1374 -50.287
LeftArm  12.9048 2.00244 -23.341
LeftForeArm  84.5827 -79.9938 -70.891
LeftHand  -0.25398 0.0180481 5.50724
RightShoulder  7.63695 12.7 40.9309
RightArm  14.2105 -2.79879 27.6698
RightForeArm  67.5664 79.1875 78.2557
RightHand  -2.17006 6.93082 -20.6449
LeftUpLeg  4.37236 5.04767 2.18672
LeftLeg  -1.57157 22.1892 -5.03448
LeftFoot  2.57401 -0.0441152 0.235273
LeftToes  1.06245e-005 4.65868e-005 -8.65517e-006
2817
root  10.0999 40.9139 11.3423 132.694 87.2794 137.662
RightUpLeg  2.32051 -9.71775 -8.80688
RightLeg  5.66484 -8.60635 2.44543
RightFoot  -0.66304 -0.114315 1.21644
RightToes  0.000481921 0.542163 -0.142578
Spine  1.67878 0.88015 1.7132
Spine1  22.0622 1.34381 -0.744775
HEad  -5.06868 0.15596 0.660815
LeftShoulder1  11.9108 -17.1626 -50.3136
LeftArm  12.7815 2.00957 -23.3193
LeftForeArm  84.6115 -79.9967 -71.0272
LeftHand  -0.25398 0.0180481 5.50724
RightShoulder  7.60668 12.6775 40.8166
RightArm  14.1078 -2.71545 27.7776
RightForeArm  66.853 79.1586 77.6172
RightHand  -2.21234 7.07725 -20.7963
LeftUpLeg  4.39187 5.03395 2.17851
LeftLeg  -1.43513 21.9675 -4.96048
LeftFoot  2.55707 -0.0433499 0.227868
LeftToes  1.06245e-005 4.65868e-005 -8.65517e-006
2818
root  10.1017 40.9132 11.3526 135.625 87.1425 140.69
RightUpLeg  2.47897 -9.74743 -8.82278
RightLeg  5.65562 -8.7591 2.47169
RightFoot  -0.700352 -0.114027 1.21221
RightToes  0.000481921 0.542163 -0.142578
Spine  1.77 0.842147 1.67846
Spine1  22.0664 1.29534 -0.725001
HEad  -4.89284 0.0807625 0.728561
LeftShoulder1  11.9306 -17.1947 -50.3189
LeftArm  12.7623 2.0137 -23.3092
LeftForeArm  84.1376 -79.9692 -70.6316
LeftHand  -0.25398 0.0180481 5.50724
RightShoulder  7.57737 12.6551 40.7071
RightArm  13.9319 -2.74759 27.9103
RightForeArm  65.9377 79.1199 76.6359
RightHand  -2.28894 7.44205 -20.9065
LeftUpLeg  4.4496 5.04726 2.21195
LeftLeg  -1.36984 21.7537 -4.9183
LeftFoot  2.55336 -0.0412981 0.214499
LeftToes  1.06245e-005 4.65868e-005 -8.65517e-006
2819
root  10.1072 40.9139 11.3704 137.268 87.1224 142.351
RightUpLeg  2.55109 -9.7356 -8.76238
RightLeg  5.59638 -8.85147 2.51348
RightFoot  -0.703572 -0.112933 1.19612
RightToes  0.000481921 0.542163 -0.142578
Spine  1.76623 0.854213 1.70864
Spine1  22.0661 1.31977 -0.760413
HEad  -4.68164 -0.134768 0.864917
LeftShoulder1  11.9398 -17.2257 -50.2825
LeftArm  12.8197 2.04738 -23.2956
LeftForeArm  83.4862 -79.9293 -70.0074
LeftHand  -0.25398 0.0180481 5.50724
RightShoulder  7.56358 12.6624 40.6067
RightArm  13.713 -2.95921 28.0611
RightForeArm  65.3085 79.0913 76.125
RightHand  -2.32073 7.5488 -21.0196
LeftUpLeg  4.44717 5.11952 2.31756
LeftLeg  -1.31365 21.6025 -4.91864
LeftFoot  2.54069 -0.0375294 0.195631
LeftToes  1.06245e-005 4.65868e-005 -8.65517e-006
2820
root  10.1074 40.9132 11.3932 138.482 87.1578 143.517
RightUpLeg  2.51457 -9.69173 -8.64993
RightLeg  5.56653 -8.93195 2.54414
RightFoot  -0.704344 -0.110316 1.15703
RightToes  0.000481921 0.542163 -0.142578
Spine  1.78429 0.884778 1.74115
Spine1  21.9902 1.36208 -0.794376
HEad  -4.56409 -0.223687 0.893992
LeftShoulder1  11.9425 -17.2462 -50.2442
LeftArm  12.8935 2.12867 -23.2495
LeftForeArm  83.1369 -79.9071 -69.6564
LeftHand  -0.25398 0.0180481 5.50724
RightShoulder  7.56044 12.6899 40.5134
RightArm  13.5201 -3.27093 28.1738
RightForeArm  65.2125 79.0868 76.3607
RightHand  -2.25423 7.16025 -21.0404
LeftUpLeg  4.34772 5.21438 2.45605
LeftLeg  -1.20125 21.4865 -4.91442
LeftFoot  2.50579 -0.0312857 0.1465
LeftToes  1.06245e-005 4.65868e-005 -8.65517e-006
2821
root  10.1025 40.9119 11.4122 139.169 87.2061 144.144
RightUpLeg  2.43157 -9.64742 -8.54868
RightLeg  5.57415 -8.97827 2.55911
RightFoot  -0.713717 -0.107708 1.11869
RightToes  0.000481921 0.542163 -0.142578
Spine  1.8546 0.91516 1.79279
Spine1  21.8797 1.41106 -0.844048
HEad  -4.49708 -0.183278 0.810824
LeftShoulder1  11.9486 -17.2629 -50.2295
LeftArm  12.9497 2.22729 -23.1927
LeftForeArm  83.1246 -79.9063 -69.6488
LeftHand  -0.25398 0.0180481 5.50724
RightShoulder  7.56032 12.7065 40.4672
RightArm  13.4084 -3.52176 28.193
RightForeArm  65.4013 79.0953 76.5486
RightHand  -2.15566 6.72807 -20.8384
LeftUpLeg  4.22346 5.28757 2.56632
LeftLeg  -1.0755 21.4214 -4.8959
LeftFoot  2.46302 -0.0238486 0.0762933
LeftToes  1.06245e-005 4.65868e-005 -8.65517e-006
2822
root  10.1001 40.9103 11.4255 138.47 87.2778 143.412
RightUpLeg  2.3568 -9.62788 -8.50143
RightLeg  5.60877 -8.92535 2.56625
RightFoot  -0.73206 -0.105635 1.0892
RightToes  0.000481921 0.542163 -0.142578
Spine  1.93293 0.95779 1.88241
Spine1  21.7929 1.49911 -0.951462
HEad  -4.39555 -0.18539 0.757419
LeftShoulder1  11.9571 -17.2893 -50.2019
LeftArm  12.9832 2.30456 -23.1884
LeftForeArm  82.9731 -79.897 -69.5273
LeftHand  -0.25398 0.0180481 5.50724
RightShoulder  7.57213 12.7111 40.5236
RightArm  13.4108 -3.67384 28.1239
RightForeArm  65.3617 79.0936 76.1143
RightHand  -2.12948 6.74108 -20.5757
LeftUpLeg  4.16749 5.33386 2.62383
LeftLeg  -1.01623 21.4424 -4.89933
LeftFoot  2.43799 -0.0196287 0.0432278
LeftToes  1.06245e-005 4.65868e-005 -8.65517e-006
2823
root  10.1033 40.9086 11.4387 137.136 87.3267 142.084
RightUpLeg  2.32414 -9.64063 -8.50573
RightLeg  5.67333 -8.83486 2.5707
RightFoot  -0.769387 -0.103592 1.06159
RightToes  0.000481921 0.542163 -0.142578
Spine  2.03316 0.992775 1.95305
Spine1  21.69 1.59006 -1.07966
HEad  -4.24965 -0.286675 0.791304
LeftShoulder1  11.9602 -17.325 -50.1289
LeftArm  13.0033 2.36688 -23.263
LeftForeArm  82.4579 -79.8631 -69.0134
LeftHand  -0.25398 0.0180481 5.50724
RightShoulder  7.60212 12.7195 40.6751
RightArm  13.5379 -3.81685 27.9993
RightForeArm  65.0251 79.0776 75.5986
RightHand  -2.18183 7.05556 -20.5546
LeftUpLeg  4.18511 5.36504 2.64466
LeftLeg  -1.00483 21.4783 -4.92374
LeftFoot  2.43159 -0.019837 0.0677551
LeftToes  1.06245e-005 4.65868e-005 -8.65517e-006
2824
root  10.1079 40.9064 11.4545 136.907 87.3048 141.886
RightUpLeg  2.33341 -9.66495 -8.51927
RightLeg  5.75242 -8.82882 2.57024
RightFoot  -0.825478 -0.102323 1.05127
RightToes  0.000481921 0.542163 -0.142578
Spine  2.19437 0.983961 1.97552
Spine1  21.511 1.62086 -1.17679
HEad  -4.09064 -0.417531 0.861308
LeftShoulder1  11.9529 -17.3578 -50.0197
LeftArm  13.0399 2.44709 -23.4016
LeftForeArm  81.9458 -79.8265 -68.4029
LeftHand  -0.25398 0.0180481 5.50724
RightShoulder  7.63281 12.7227 40.8448
RightArm  13.7534 -3.98862 27.8491
RightForeArm  64.8161 79.0679 75.6668
RightHand  -2.23908 7.25294 -20.7602
LeftUpLeg  4.20438 5.39088 2.66314
LeftLeg  -0.957534 21.4342 -4.92784
LeftFoot  2.41761 -0.0201807 0.0878534
LeftToes  1.06245e-005 4.65868e-005 -8.65517e-006
2825
root  10.111 40.9039 11.4708 137.292 87.2904 142.291
RightUpLeg  2.3348 -9.65781 -8.49023
RightLeg  5.819 -8.87515 2.55547
RightFoot  -0.87791 -0.102932 1.0664
RightToes  0.000481921 0.542163 -0.142578
Spine  2.37794 0.958502 2.01507
Spine1  21.2913 1.6278 -1.2676
HEad  -3.94027 -0.525041 0.942052
LeftShoulder1  11.9336 -17.3815 -49.8828
LeftArm  13.1195 2.54662 -23.5953
LeftForeArm  81.6876 -79.8057 -68.0095
LeftHand  -0.25398 0.0180481 5.50724
RightShoulder  7.64345 12.7051 40.9547
RightArm  13.9857 -4.13338 27.732
RightForeArm  64.9228 79.074 76.1194
RightHand  -2.26156 7.2761 -20.9235
LeftUpLeg  4.19007 5.43471 2.71526
LeftLeg  -0.86432 21.3607 -4.91558
LeftFoot  2.37978 -0.0172146 0.0522165
LeftToes  1.06245e-005 4.65868e-005 -8.65517e-006
